<?xml version="1.0" encoding="UTF-8"?>
<svg xmlns="http://www.w3.org/2000/svg" version="1.1" viewBox="0 0 199.6 194.1">
  <defs>
    <style>
      .cls-1 {
        fill: #1087c5;
      }

      .cls-1, .cls-2 {
        fill-rule: evenodd;
      }

      .cls-2 {
        fill: #003971;
      }

      .cls-3 {
        display: none;
      }
    </style>
  </defs>
  <!-- Generator: Adobe Illustrator 28.6.0, SVG Export Plug-In . SVG Version: 1.2.0 Build 709)  -->
  <g>
    <g id="Layer_1">
      <g class="cls-3">
        <polygon class="cls-2" points="383.8 171.8 406.8 85.8 429.7 85.8 410.6 155.7 446.7 155.7 442.4 171.8 383.8 171.8"/>
        <polygon class="cls-2" points="451.3 171.8 474.4 85.8 536.4 85.8 532.1 101.7 493.1 101.7 488.2 120.2 523.9 120.2 519.8 137 484.1 137 479 155.9 517.8 155.9 513.6 171.8 451.5 171.8 451.3 171.8"/>
        <polygon class="cls-2" points="550.6 171.8 541 85.8 562 85.8 569 149.9 599.4 85.8 621.2 85.8 577.4 171.8 550.6 171.8"/>
        <polygon class="cls-2" points="85.9 171.8 85.9 85.9 143.1 85.9 143.1 108.2 116.7 108.2 116.7 118.5 140.1 118.5 140.1 140.7 116.2 140.7 116.2 171.8 85.9 171.8"/>
        <path class="cls-2" d="M238.8,129c0,6.2-1.1,12-3.4,17.4-2.2,5.4-5.5,10.3-9.8,14.6-4.3,4.2-9.3,7.5-14.9,9.8-5.6,2.3-11.4,3.4-17.4,3.4s-11.9-1.1-17.5-3.4c-5.6-2.3-10.5-5.6-14.7-9.8-4.4-4.3-7.7-9.1-10-14.6-2.3-5.4-3.4-11.3-3.4-17.4s1.1-12,3.4-17.4c2.3-5.4,5.6-10.3,10-14.6,4.2-4.2,9.1-7.5,14.7-9.8,5.6-2.3,11.4-3.5,17.5-3.5s11.9,1.2,17.5,3.5c5.6,2.3,10.5,5.6,14.8,9.8,4.3,4.2,7.6,9.1,9.8,14.5,2.2,5.5,3.4,11.3,3.4,17.4M193.3,144.9c4,0,7.4-1.5,10-4.5,2.6-3,4-6.8,4-11.4s-1.3-8.3-4-11.4c-2.7-3-6-4.6-10-4.6s-7.4,1.5-10,4.5c-2.6,3-4,6.8-4,11.4s1.3,8.5,3.9,11.4c2.6,3,6,4.5,10.1,4.5"/>
        <path class="cls-2" d="M276.6,124.7h3.3c3.8,0,6.6-.6,8.3-1.9,1.7-1.3,2.6-3.3,2.6-6.1s-.8-5.5-2.4-6.9c-1.6-1.4-4.4-2.1-8.2-2.1h-3.5v17ZM247.4,171.8v-85.9h27.9c10.9,0,17.6.5,21.9,1.3,11.9,2.4,23,12.5,23.1,25.4,0,12.3-6.6,22.6-16.9,24.6l21.7,34.6h-34.4l-14.2-27.7v27.7h-29.2Z"/>
        <polygon class="cls-2" points="342.5 171.8 342.5 113.2 325 113.2 325 85.9 390.4 85.9 390.4 113.2 373 113.2 373 171.8 342.5 171.8"/>
      </g>
      <path class="cls-1" d="M105.8,197.8v1.6c0-.6,0-1.1,0-1.6h0Z"/>
      <path class="cls-1" d="M105.9,199.4"/>
      <path class="cls-1" d="M75.8,12.5c-1.8.9-3.5,1.9-5.1,2.9l3.2,5.5,8,14c5.1-3.6,11.1-5.5,17.4-5.4,6.3,0,12.2,2.1,17.2,5.9l10.9-19.8c-1.2-.8-2.9-1.9-4.8-2.9-2.4,4.5-5.9,7-8.7,5.9-2.8-1-3.9-5.2-2.8-10.2-1.9-.5-3.9-.8-5.8-1.1-.7,5-3.2,8.6-6.1,8.6-2.9,0-5.4-3.5-6.1-8.6-2,.2-3.9.6-5.9,1,1.1,5,0,9.1-2.8,10.1-2.8,1-6.3-1.5-8.7-6Z"/>
      <path class="cls-1" d="M140.1,60.7c-21.3,0-38.7-10.4-40.6-24.2l-.2-1.2-.7,1.1c-1.9,13.8-19,24.3-40.3,24.3s-12.5-.5-17.8-2.2l-.2,36.2c0,41.2,33.1,75.1,58.8,91.8,29.7-20.6,58.6-47.5,58.6-91.8v-36.3c-5.3,1.7-11.3,2.2-17.6,2.2ZM84.3,117.7c1,2.3,2.4,4.4,4.2,6.3,1.9,1.9,4,3.3,6.4,4.3,2.4.9,4.8,1.4,7.3,1.4s4.9-.5,7.3-1.4c2.4-.9,4.6-2.4,6.5-4.3l11.7,11.8c-3.5,3.5-7.5,6.2-11.9,7.9-4.4,1.7-8.9,2.6-13.6,2.6s-9.2-.9-13.6-2.6c-4.4-1.7-8.4-4.4-11.9-7.9-3.4-3.5-6-7.4-7.8-11.7-1.8-4.3-2.7-8.9-2.7-13.8s.9-9.5,2.7-13.9c1.8-4.3,4.4-8.2,7.8-11.6,3.5-3.5,7.5-6.2,12-7.9,4.4-1.8,9-2.6,13.6-2.6s9.1.9,13.5,2.6c4.4,1.8,8.4,4.4,11.9,7.9l-11.7,11.7c-1.9-1.9-4.1-3.3-6.5-4.3-2.4-.9-4.9-1.4-7.3-1.4s-4.9.5-7.3,1.4c-2.4.9-4.5,2.4-6.4,4.3-1.8,1.9-3.2,4-4.2,6.4-1,2.4-1.5,4.8-1.5,7.4s.5,5.1,1.5,7.4Z"/>
      <path class="cls-1" d="M92.1,48.2"/>
    </g>
  </g>
</svg>